<?xml version="1.0" encoding="utf-8"?>
<svg xmlns="http://www.w3.org/2000/svg" xmlns:xlink="http://www.w3.org/1999/xlink" style="margin: auto; background: rgb(26, 32, 44); display: block; z-index: 1; position: relative; shape-rendering: auto;" width="1981" height="1155" preserveAspectRatio="xMidYMid" viewBox="0 0 1981 1155">
<g transform="translate(990.5,577.5) scale(1,1) translate(-990.5,-577.5)"><path id="path0" d="M 1770.0914397875617 485.7070032315974
c 0 30.578910864768215 -7.482073934996477 8.783304184561084 -16.26537811955756 8.783304184561084
S 1737.5606835484468 516.2859140963657 1737.5606835484468 485.7070032315974
s 7.482073934996477 -8.783304184561084 16.26537811955756 -8.783304184561084
S 1770.0914397875617 455.1280923668292 1770.0914397875617 485.7070032315974
z" fill="none" stroke="none"></path>
<circle cx="0" cy="0" r="6.414795581048468" fill="#00cc76">
  <animateMotion begin="-2.4893685785028663s" dur="10s" repeatCount="indefinite">
    <mpath xlink:href="#path0"></mpath>
  </animateMotion>
</circle><path id="path1" d="M 1981.5996130877327 128.0633180797083
c 0 21.013631366030367 -5.141633206581898 6.035830285987446 -11.177463492569345 6.035830285987446
S 1959.244686102594 149.07694944573865 1959.244686102594 128.0633180797083
s 5.141633206581898 -6.035830285987446 11.177463492569345 -6.035830285987446
S 1981.5996130877327 107.04968671367793 1981.5996130877327 128.0633180797083
z" fill="none" stroke="none"></path>
<circle cx="0" cy="0" r="6.975285589890595" fill="#00cc76">
  <animateMotion begin="-5.7916169657045025s" dur="10s" repeatCount="indefinite">
    <mpath xlink:href="#path1"></mpath>
  </animateMotion>
</circle><path id="path2" d="M 1444.3512210067581 983.4169582052162
c 0 22.668614587630664 -5.546575909739417 6.511197807085403 -12.05777371682482 6.511197807085403
S 1420.2356735731084 1006.085572792847 1420.2356735731084 983.4169582052162
s 5.546575909739417 -6.511197807085403 12.05777371682482 -6.511197807085403
S 1444.3512210067581 960.7483436175855 1444.3512210067581 983.4169582052162
z" fill="none" stroke="none"></path>
<circle cx="0" cy="0" r="6.573104178045678" fill="#e7e63d">
  <animateMotion begin="-1.8032232500601775s" dur="10s" repeatCount="indefinite">
    <mpath xlink:href="#path2"></mpath>
  </animateMotion>
</circle><path id="path3" d="M 383.61819566365875 842.7998676477141
c 0 19.518254297814345 -4.775743072869466 5.606307085542418 -10.382050158411884 5.606307085542418
S 362.85409534683504 862.3181219455284 362.85409534683504 842.7998676477141
s 4.775743072869466 -5.606307085542418 10.382050158411884 -5.606307085542418
S 383.61819566365875 823.2816133498998 383.61819566365875 842.7998676477141
z" fill="none" stroke="none"></path>
<circle cx="0" cy="0" r="4.5893168350000515" fill="#a5e887">
  <animateMotion begin="-8.237156003138036s" dur="10s" repeatCount="indefinite">
    <mpath xlink:href="#path3"></mpath>
  </animateMotion>
</circle><path id="path4" d="M 694.7618457032364 182.26403679572087
c 0 29.443357565505067 -7.204225787304431 8.457134619879115 -15.661360407183547 8.457134619879115
S 663.4391248888693 211.70739436122594 663.4391248888693 182.26403679572087
s 7.204225787304431 -8.457134619879115 15.661360407183547 -8.457134619879115
S 694.7618457032364 152.8206792302158 694.7618457032364 182.26403679572087
z" fill="none" stroke="none"></path>
<circle cx="0" cy="0" r="4.893161191990012" fill="#a5e887">
  <animateMotion begin="-9.926918214332566s" dur="10s" repeatCount="indefinite">
    <mpath xlink:href="#path4"></mpath>
  </animateMotion>
</circle><path id="path5" d="M 213.67906127958568 144.88729615348944
c 0 33.18689962548879 -8.12019884453449 9.532407339236142 -17.652606183770633 9.532407339236142
S 178.3738489120444 178.07419577897824 178.3738489120444 144.88729615348944
s 8.12019884453449 -9.532407339236142 17.652606183770633 -9.532407339236142
S 213.67906127958568 111.70039652800065 213.67906127958568 144.88729615348944
z" fill="none" stroke="none"></path>
<circle cx="0" cy="0" r="4.67166065262914" fill="#16cc76">
  <animateMotion begin="-7.20189422286734s" dur="10s" repeatCount="indefinite">
    <mpath xlink:href="#path5"></mpath>
  </animateMotion>
</circle><path id="path6" d="M 870.1851515200322 439.42443900170565
c 0 37.223939688733196 -9.10798524298791 10.691982676551024 -19.799967919538936 10.691982676551024
S 830.5852156809542 476.64837869043885 830.5852156809542 439.42443900170565
s 9.10798524298791 -10.691982676551024 19.799967919538936 -10.691982676551024
S 870.1851515200322 402.20049931297245 870.1851515200322 439.42443900170565
z" fill="none" stroke="none"></path>
<circle cx="0" cy="0" r="6.7005668448229745" fill="#e7e63d">
  <animateMotion begin="-7.423965571249365s" dur="10s" repeatCount="indefinite">
    <mpath xlink:href="#path6"></mpath>
  </animateMotion>
</circle><path id="path7" d="M 1120.587846392747 939.8469371808725
c 0 27.391795478033394 -6.702247829731575 7.867856147945763 -14.570103977677338 7.867856147945763
S 1091.4476384373925 967.2387326589059 1091.4476384373925 939.8469371808725
s 6.702247829731575 -7.867856147945763 14.570103977677338 -7.867856147945763
S 1120.587846392747 912.4551417028391 1120.587846392747 939.8469371808725
z" fill="none" stroke="none"></path>
<circle cx="0" cy="0" r="6.329875606093271" fill="#e7e63d">
  <animateMotion begin="-9.848029176534697s" dur="10s" repeatCount="indefinite">
    <mpath xlink:href="#path7"></mpath>
  </animateMotion>
</circle><path id="path8" d="M 1690.5292908936929 645.5088170001557
c 0 27.949516068310633 -6.838711378416431 8.028052487706246 -14.866763866122676 8.028052487706246
S 1660.7957631614474 673.4583330684663 1660.7957631614474 645.5088170001557
s 6.838711378416431 -8.028052487706246 14.866763866122676 -8.028052487706246
S 1690.5292908936929 617.559300931845 1690.5292908936929 645.5088170001557
z" fill="none" stroke="none"></path>
<circle cx="0" cy="0" r="4.529024569359707" fill="#00cc76">
  <animateMotion begin="-5.166839154097969s" dur="10s" repeatCount="indefinite">
    <mpath xlink:href="#path8"></mpath>
  </animateMotion>
</circle><path id="path9" d="M 167.29158849582663 934.6296489444393
c 0 23.270992101484726 -5.693966152490943 6.684221135532847 -12.37818728802379 6.684221135532847
S 142.53521391977907 957.900641045924 142.53521391977907 934.6296489444393
s 5.693966152490943 -6.684221135532847 12.37818728802379 -6.684221135532847
S 167.29158849582663 911.3586568429546 167.29158849582663 934.6296489444393
z" fill="none" stroke="none"></path>
<circle cx="0" cy="0" r="3.9342872926917014" fill="#a5e887">
  <animateMotion begin="-1.1329850607767433s" dur="10s" repeatCount="indefinite">
    <mpath xlink:href="#path9"></mpath>
  </animateMotion>
</circle><path id="path10" d="M 1636.4133545281404 284.9881586347333
c 0 32.94512258933098 -8.061040633559706 9.462960743744004 -17.524001377303712 9.462960743744004
S 1601.3653517735331 317.9332812240643 1601.3653517735331 284.9881586347333
s 8.061040633559706 -9.462960743744004 17.524001377303712 -9.462960743744004
S 1636.4133545281404 252.0430360454023 1636.4133545281404 284.9881586347333
z" fill="none" stroke="none"></path>
<circle cx="0" cy="0" r="5.049493275076243" fill="#e7e63d">
  <animateMotion begin="-6.431048268673656s" dur="10s" repeatCount="indefinite">
    <mpath xlink:href="#path10"></mpath>
  </animateMotion>
</circle><path id="path11" d="M 1712.1165836014347 853.7771560485351
c 0 26.787933112588572 -6.5544942722291175 7.6944063195733134 -14.248900591802432 7.6944063195733134
S 1683.61878241783 880.5650891611236 1683.61878241783 853.7771560485351
s 6.5544942722291175 -7.6944063195733134 14.248900591802432 -7.6944063195733134
S 1712.1165836014347 826.9892229359465 1712.1165836014347 853.7771560485351
z" fill="none" stroke="none"></path>
<circle cx="0" cy="0" r="4.334646225008289" fill="#a5e887">
  <animateMotion begin="-0.6397848856102706s" dur="10s" repeatCount="indefinite">
    <mpath xlink:href="#path11"></mpath>
  </animateMotion>
</circle><path id="path12" d="M 1006.7818863574328 100.25572638052937
c 0 32.70016159607479 -8.001103369252343 9.392599607383186 -17.393702976635527 9.392599607383186
S 971.9944804041618 132.95588797660417 971.9944804041618 100.25572638052937
s 8.001103369252343 -9.392599607383186 17.393702976635527 -9.392599607383186
S 1006.7818863574328 67.55556478445457 1006.7818863574328 100.25572638052937
z" fill="none" stroke="none"></path>
<circle cx="0" cy="0" r="6.686932867935473" fill="#00cc76">
  <animateMotion begin="-2.9221953541719703s" dur="10s" repeatCount="indefinite">
    <mpath xlink:href="#path12"></mpath>
  </animateMotion>
</circle><path id="path13" d="M 1065.460161298294 39.372556728138434
c 0 34.106492942635604 -8.345205720006582 9.79654584522512 -18.141751565231704 9.79654584522512
S 1029.1766581678305 73.47904967077403 1029.1766581678305 39.372556728138434
s 8.345205720006582 -9.79654584522512 18.141751565231704 -9.79654584522512
S 1065.460161298294 5.26606378550283 1065.460161298294 39.372556728138434
z" fill="none" stroke="none"></path>
<circle cx="0" cy="0" r="4.491842878987363" fill="#e7e63d">
  <animateMotion begin="-0.9908874051905103s" dur="10s" repeatCount="indefinite">
    <mpath xlink:href="#path13"></mpath>
  </animateMotion>
</circle><path id="path14" d="M 407.6350445570544 157.74840841662032
c 0 31.869237719358505 -7.797792207928143 9.153929983219996 -16.95172219114814 9.153929983219996
S 373.73160017475817 189.61764613597882 373.73160017475817 157.74840841662032
s 7.797792207928143 -9.153929983219996 16.95172219114814 -9.153929983219996
S 407.6350445570544 125.87917069726181 407.6350445570544 157.74840841662032
z" fill="none" stroke="none"></path>
<circle cx="0" cy="0" r="3.5202412581412843" fill="#00cc76">
  <animateMotion begin="-7.864982900333675s" dur="10s" repeatCount="indefinite">
    <mpath xlink:href="#path14"></mpath>
  </animateMotion>
</circle><path id="path15" d="M 1859.4865715989604 378.9517986384844
c 0 20.45467532600625 -5.004867367001528 5.875279083001795 -10.880146450003323 5.875279083001795
S 1837.7262786989536 399.4064739644906 1837.7262786989536 378.9517986384844
s 5.004867367001528 -5.875279083001795 10.880146450003323 -5.875279083001795
S 1859.4865715989604 358.49712331247815 1859.4865715989604 378.9517986384844
z" fill="none" stroke="none"></path>
<circle cx="0" cy="0" r="6.795717680280883" fill="#e7e63d">
  <animateMotion begin="-6.996408774499487s" dur="10s" repeatCount="indefinite">
    <mpath xlink:href="#path15"></mpath>
  </animateMotion>
</circle><path id="path16" d="M 328.5474447222802 661.3470066585968
c 0 23.140031441921806 -5.6619225868532075 6.646604775871157 -12.308527362724364 6.646604775871157
S 303.9303899968315 684.4870381005186 303.9303899968315 661.3470066585968
s 5.6619225868532075 -6.646604775871157 12.308527362724364 -6.646604775871157
S 328.5474447222802 638.206975216675 328.5474447222802 661.3470066585968
z" fill="none" stroke="none"></path>
<circle cx="0" cy="0" r="5.078150107108324" fill="#16cc76">
  <animateMotion begin="-0.5750652608879503s" dur="10s" repeatCount="indefinite">
    <mpath xlink:href="#path16"></mpath>
  </animateMotion>
</circle><path id="path17" d="M 791.6255104309395 366.60207745392665
c 0 28.27935923847923 -6.919417686010875 8.122794674882332 -15.042212360893208 8.122794674882332
S 761.541085709153 394.8814366924059 761.541085709153 366.60207745392665
s 6.919417686010875 -8.122794674882332 15.042212360893208 -8.122794674882332
S 791.6255104309395 338.3227182154474 791.6255104309395 366.60207745392665
z" fill="none" stroke="none"></path>
<circle cx="0" cy="0" r="4.480092247056528" fill="#a5e887">
  <animateMotion begin="-5.179777966169452s" dur="10s" repeatCount="indefinite">
    <mpath xlink:href="#path17"></mpath>
  </animateMotion>
</circle><path id="path18" d="M 249.0512271563747 463.76445822730085
c 0 27.22479982790668 -6.661387191934613 7.8198893122710675 -14.481276504205681 7.8198893122710675
S 220.08867414796333 490.98925805520753 220.08867414796333 463.76445822730085
s 6.661387191934613 -7.8198893122710675 14.481276504205681 -7.8198893122710675
S 249.0512271563747 436.53965839939417 249.0512271563747 463.76445822730085
z" fill="none" stroke="none"></path>
<circle cx="0" cy="0" r="4.6450427335167355" fill="#a5e887">
  <animateMotion begin="-0.5912082848727063s" dur="10s" repeatCount="indefinite">
    <mpath xlink:href="#path18"></mpath>
  </animateMotion>
</circle><path id="path19" d="M 1950.045057711158 1133.5306939671827
c 0 35.88160175984543 -8.779540856132392 10.306417526764115 -19.085958382896507 10.306417526764115
S 1911.873140945365 1169.412295727028 1911.873140945365 1133.5306939671827
s 8.779540856132392 -10.306417526764115 19.085958382896507 -10.306417526764115
S 1950.045057711158 1097.6490922073374 1950.045057711158 1133.5306939671827
z" fill="none" stroke="none"></path>
<circle cx="0" cy="0" r="5.3570942922390286" fill="#a5e887">
  <animateMotion begin="-9.516471576856267s" dur="10s" repeatCount="indefinite">
    <mpath xlink:href="#path19"></mpath>
  </animateMotion>
</circle><path id="path20" d="M 1237.3249374350144 686.3654185581294
c 0 31.363578489851285 -7.674067077304037 9.008687438574306 -16.682754515878344 9.008687438574306
S 1203.9594284032578 717.7289970479807 1203.9594284032578 686.3654185581294
s 7.674067077304037 -9.008687438574306 16.682754515878344 -9.008687438574306
S 1237.3249374350144 655.001840068278 1237.3249374350144 686.3654185581294
z" fill="none" stroke="none"></path>
<circle cx="0" cy="0" r="6.81440134084563" fill="#e7e63d">
  <animateMotion begin="-9.813045257151312s" dur="10s" repeatCount="indefinite">
    <mpath xlink:href="#path20"></mpath>
  </animateMotion>
</circle><path id="path21" d="M 879.4357038939784 801.2794912570115
c 0 37.572503087457115 -9.193272032037378 10.792101950652576 -19.985373982689953 10.792101950652576
S 839.4649559285986 838.8519943444686 839.4649559285986 801.2794912570115
s 9.193272032037378 -10.792101950652576 19.985373982689953 -10.792101950652576
S 879.4357038939784 763.7069881695544 879.4357038939784 801.2794912570115
z" fill="none" stroke="none"></path>
<circle cx="0" cy="0" r="6.472056063033351" fill="#e7e63d">
  <animateMotion begin="-9.255020842840626s" dur="10s" repeatCount="indefinite">
    <mpath xlink:href="#path21"></mpath>
  </animateMotion>
</circle><path id="path22" d="M 816.2763623489541 720.8609194223848
c 0 35.08699692368441 -8.585116268561078 10.078179967441267 -18.663296236002346 10.078179967441267
S 778.9497698769494 755.9479163460692 778.9497698769494 720.8609194223848
s 8.585116268561078 -10.078179967441267 18.663296236002346 -10.078179967441267
S 816.2763623489541 685.7739224987004 816.2763623489541 720.8609194223848
z" fill="none" stroke="none"></path>
<circle cx="0" cy="0" r="6.749118428633503" fill="#a5e887">
  <animateMotion begin="-0.02456161370264942s" dur="10s" repeatCount="indefinite">
    <mpath xlink:href="#path22"></mpath>
  </animateMotion>
</circle><path id="path23" d="M 1386.5287436858027 963.2372261190271
c 0 34.285889439368276 -8.389100607505004 9.848074626201527 -18.23717523370653 9.848074626201527
S 1350.0543932183898 997.5231155583954 1350.0543932183898 963.2372261190271
s 8.389100607505004 -9.848074626201527 18.23717523370653 -9.848074626201527
S 1386.5287436858027 928.9513366796589 1386.5287436858027 963.2372261190271
z" fill="none" stroke="none"></path>
<circle cx="0" cy="0" r="5.4073317431186885" fill="#16cc76">
  <animateMotion begin="-6.302785603349577s" dur="10s" repeatCount="indefinite">
    <mpath xlink:href="#path23"></mpath>
  </animateMotion>
</circle><path id="path24" d="M 1586.2838753370459 738.941488404338
c 0 22.62719166028874 -5.53644051262384 6.499299732210596 -12.035740244834436 6.499299732210596
S 1562.212394847377 761.5686800646267 1562.212394847377 738.941488404338
s 5.53644051262384 -6.499299732210596 12.035740244834436 -6.499299732210596
S 1586.2838753370459 716.3142967440492 1586.2838753370459 738.941488404338
z" fill="none" stroke="none"></path>
<circle cx="0" cy="0" r="3.5765136837337623" fill="#e7e63d">
  <animateMotion begin="-2.039070555614988s" dur="10s" repeatCount="indefinite">
    <mpath xlink:href="#path24"></mpath>
  </animateMotion>
</circle><path id="path25" d="M 1109.0207939275472 716.7448892862346
c 0 28.985544163413955 -7.0922076144523505 8.325635025661455 -15.417842640113806 8.325635025661455
S 1078.1851086473196 745.7304334496486 1078.1851086473196 716.7448892862346
s 7.0922076144523505 -8.325635025661455 15.417842640113806 -8.325635025661455
S 1109.0207939275472 687.7593451228207 1109.0207939275472 716.7448892862346
z" fill="none" stroke="none"></path>
<circle cx="0" cy="0" r="4.804715634127213" fill="#00cc76">
  <animateMotion begin="-8.176940915114752s" dur="10s" repeatCount="indefinite">
    <mpath xlink:href="#path25"></mpath>
  </animateMotion>
</circle><path id="path26" d="M 1684.9323157078593 509.1974958393269
c 0 19.152993125499655 -4.686370658366936 5.501391642430753 -10.18776230079769 5.501391642430753
S 1664.556791106264 528.3504889648266 1664.556791106264 509.1974958393269
s 4.686370658366936 -5.501391642430753 10.18776230079769 -5.501391642430753
S 1684.9323157078593 490.0445027138272 1684.9323157078593 509.1974958393269
z" fill="none" stroke="none"></path>
<circle cx="0" cy="0" r="4.9896162223504055" fill="#00cc76">
  <animateMotion begin="-1.1310168568204437s" dur="10s" repeatCount="indefinite">
    <mpath xlink:href="#path26"></mpath>
  </animateMotion>
</circle><path id="path27" d="M 258.69230838055245 606.4136589111126
c 0 28.6788065338403 -7.017154790194967 8.237529536315831 -15.254684326510798 8.237529536315831
S 228.18293972753088 635.092465444953 228.18293972753088 606.4136589111126
s 7.017154790194967 -8.237529536315831 15.254684326510798 -8.237529536315831
S 258.69230838055245 577.7348523772723 258.69230838055245 606.4136589111126
z" fill="none" stroke="none"></path>
<circle cx="0" cy="0" r="5.64795634359398" fill="#a5e887">
  <animateMotion begin="-4.4042180856972895s" dur="10s" repeatCount="indefinite">
    <mpath xlink:href="#path27"></mpath>
  </animateMotion>
</circle></g>
</svg>